<?xml version="1.0" encoding="UTF-8"?>
<!DOCTYPE svg PUBLIC "-//W3C//DTD SVG 1.1//EN" "http://www.w3.org/Graphics/SVG/1.1/DTD/svg11.dtd">
<svg xmlns="http://www.w3.org/2000/svg" version="1.1" width="896px" height="896px" style="shape-rendering:geometricPrecision; text-rendering:geometricPrecision; image-rendering:optimizeQuality; fill-rule:evenodd; clip-rule:evenodd" xmlns:xlink="http://www.w3.org/1999/xlink">
<g><path style="opacity:1" fill="#073635" d="M 391.5,-0.5 C 410.167,-0.5 428.833,-0.5 447.5,-0.5C 447.5,18.1667 447.5,36.8333 447.5,55.5C 428.833,55.5 410.167,55.5 391.5,55.5C 391.5,36.8333 391.5,18.1667 391.5,-0.5 Z"/></g>
<g><path style="opacity:1" fill="#073635" d="M 895.5,167.5 C 895.5,260.833 895.5,354.167 895.5,447.5C 876.833,447.5 858.167,447.5 839.5,447.5C 839.5,484.833 839.5,522.167 839.5,559.5C 820.833,559.5 802.167,559.5 783.5,559.5C 783.5,503.5 783.5,447.5 783.5,391.5C 802.167,391.5 820.833,391.5 839.5,391.5C 839.5,335.5 839.5,279.5 839.5,223.5C 820.833,223.5 802.167,223.5 783.5,223.5C 783.5,204.833 783.5,186.167 783.5,167.5C 764.833,167.5 746.167,167.5 727.5,167.5C 727.5,148.833 727.5,130.167 727.5,111.5C 690.167,111.5 652.833,111.5 615.5,111.5C 615.5,130.167 615.5,148.833 615.5,167.5C 596.833,167.5 578.167,167.5 559.5,167.5C 522.167,167.5 484.833,167.5 447.5,167.5C 447.5,148.833 447.5,130.167 447.5,111.5C 484.833,111.5 522.167,111.5 559.5,111.5C 559.5,92.8333 559.5,74.1667 559.5,55.5C 634.167,55.5 708.833,55.5 783.5,55.5C 783.5,74.1667 783.5,92.8333 783.5,111.5C 802.167,111.5 820.833,111.5 839.5,111.5C 839.5,130.167 839.5,148.833 839.5,167.5C 858.167,167.5 876.833,167.5 895.5,167.5 Z"/></g>
<g><path style="opacity:1" fill="#000000" d="M 447.5,111.5 C 447.5,130.167 447.5,148.833 447.5,167.5C 428.833,167.5 410.167,167.5 391.5,167.5C 335.5,167.5 279.5,167.5 223.5,167.5C 223.5,148.833 223.5,130.167 223.5,111.5C 298.167,111.5 372.833,111.5 447.5,111.5 Z"/></g>
<g><path style="opacity:1" fill="#031211" d="M 727.5,167.5 C 690.167,167.5 652.833,167.5 615.5,167.5C 615.5,148.833 615.5,130.167 615.5,111.5C 652.833,111.5 690.167,111.5 727.5,111.5C 727.5,130.167 727.5,148.833 727.5,167.5 Z"/></g>
<g><path style="opacity:1" fill="#000000" d="M 223.5,167.5 C 223.5,186.167 223.5,204.833 223.5,223.5C 186.167,223.5 148.833,223.5 111.5,223.5C 111.5,204.833 111.5,186.167 111.5,167.5C 148.833,167.5 186.167,167.5 223.5,167.5 Z"/></g>
<g><path style="opacity:1" fill="#edf2f1" d="M 223.5,167.5 C 279.5,167.5 335.5,167.5 391.5,167.5C 391.5,169.833 391.5,172.167 391.5,174.5C 396.167,174.5 400.833,174.5 405.5,174.5C 405.5,176.833 405.5,179.167 405.5,181.5C 417.167,181.5 428.833,181.5 440.5,181.5C 440.5,188.5 440.5,195.5 440.5,202.5C 442.833,202.5 445.167,202.5 447.5,202.5C 447.5,209.5 447.5,216.5 447.5,223.5C 372.833,223.5 298.167,223.5 223.5,223.5C 223.5,204.833 223.5,186.167 223.5,167.5 Z"/></g>
<g><path style="opacity:1" fill="#d1d1d1" d="M 391.5,167.5 C 410.167,167.5 428.833,167.5 447.5,167.5C 447.5,179.167 447.5,190.833 447.5,202.5C 445.167,202.5 442.833,202.5 440.5,202.5C 440.5,195.5 440.5,188.5 440.5,181.5C 428.833,181.5 417.167,181.5 405.5,181.5C 405.5,179.167 405.5,176.833 405.5,174.5C 400.833,174.5 396.167,174.5 391.5,174.5C 391.5,172.167 391.5,169.833 391.5,167.5 Z"/></g>
<g><path style="opacity:1" fill="#000000" d="M 447.5,167.5 C 484.833,167.5 522.167,167.5 559.5,167.5C 559.5,186.167 559.5,204.833 559.5,223.5C 538.5,223.5 517.5,223.5 496.5,223.5C 480.167,223.5 463.833,223.5 447.5,223.5C 447.5,216.5 447.5,209.5 447.5,202.5C 447.5,190.833 447.5,179.167 447.5,167.5 Z"/></g>
<g><path style="opacity:1" fill="#031211" d="M 559.5,167.5 C 578.167,167.5 596.833,167.5 615.5,167.5C 615.5,186.167 615.5,204.833 615.5,223.5C 596.833,223.5 578.167,223.5 559.5,223.5C 559.5,204.833 559.5,186.167 559.5,167.5 Z"/></g>
<g><path style="opacity:1" fill="#04181f" d="M 615.5,167.5 C 652.833,167.5 690.167,167.5 727.5,167.5C 727.5,181.5 727.5,195.5 727.5,209.5C 725.167,209.5 722.833,209.5 720.5,209.5C 720.5,211.833 720.5,214.167 720.5,216.5C 722.833,216.5 725.167,216.5 727.5,216.5C 727.5,218.833 727.5,221.167 727.5,223.5C 727.5,225.833 727.5,228.167 727.5,230.5C 729.833,230.5 732.167,230.5 734.5,230.5C 734.5,228.167 734.5,225.833 734.5,223.5C 750.833,223.5 767.167,223.5 783.5,223.5C 783.5,256.167 783.5,288.833 783.5,321.5C 781.167,321.5 778.833,321.5 776.5,321.5C 776.5,323.833 776.5,326.167 776.5,328.5C 774.167,328.5 771.833,328.5 769.5,328.5C 769.5,326.167 769.5,323.833 769.5,321.5C 769.5,316.833 769.5,312.167 769.5,307.5C 767.167,307.5 764.833,307.5 762.5,307.5C 762.5,312.167 762.5,316.833 762.5,321.5C 762.5,323.833 762.5,326.167 762.5,328.5C 760.167,328.5 757.833,328.5 755.5,328.5C 755.5,330.833 755.5,333.167 755.5,335.5C 753.167,335.5 750.833,335.5 748.5,335.5C 743.833,335.5 739.167,335.5 734.5,335.5C 734.5,337.833 734.5,340.167 734.5,342.5C 739.167,342.5 743.833,342.5 748.5,342.5C 750.833,342.5 753.167,342.5 755.5,342.5C 755.5,344.833 755.5,347.167 755.5,349.5C 757.833,349.5 760.167,349.5 762.5,349.5C 762.5,351.833 762.5,354.167 762.5,356.5C 762.5,361.167 762.5,365.833 762.5,370.5C 764.833,370.5 767.167,370.5 769.5,370.5C 769.5,365.833 769.5,361.167 769.5,356.5C 769.5,354.167 769.5,351.833 769.5,349.5C 771.833,349.5 774.167,349.5 776.5,349.5C 776.5,351.833 776.5,354.167 776.5,356.5C 778.833,356.5 781.167,356.5 783.5,356.5C 783.5,368.167 783.5,379.833 783.5,391.5C 764.833,391.5 746.167,391.5 727.5,391.5C 727.5,421.833 727.5,452.167 727.5,482.5C 725.167,482.5 722.833,482.5 720.5,482.5C 720.5,484.833 720.5,487.167 720.5,489.5C 718.167,489.5 715.833,489.5 713.5,489.5C 713.5,491.833 713.5,494.167 713.5,496.5C 711.167,496.5 708.833,496.5 706.5,496.5C 706.5,498.833 706.5,501.167 706.5,503.5C 708.833,503.5 711.167,503.5 713.5,503.5C 713.5,505.833 713.5,508.167 713.5,510.5C 715.833,510.5 718.167,510.5 720.5,510.5C 720.5,512.833 720.5,515.167 720.5,517.5C 722.833,517.5 725.167,517.5 727.5,517.5C 727.5,531.5 727.5,545.5 727.5,559.5C 708.833,559.5 690.167,559.5 671.5,559.5C 671.5,484.833 671.5,410.167 671.5,335.5C 652.833,335.5 634.167,335.5 615.5,335.5C 615.5,298.167 615.5,260.833 615.5,223.5C 615.5,204.833 615.5,186.167 615.5,167.5 Z"/></g>
<g><path style="opacity:1" fill="#031211" d="M 727.5,167.5 C 746.167,167.5 764.833,167.5 783.5,167.5C 783.5,186.167 783.5,204.833 783.5,223.5C 767.167,223.5 750.833,223.5 734.5,223.5C 732.167,223.5 729.833,223.5 727.5,223.5C 727.5,221.167 727.5,218.833 727.5,216.5C 727.5,214.167 727.5,211.833 727.5,209.5C 727.5,195.5 727.5,181.5 727.5,167.5 Z"/></g>
<g><path style="opacity:1" fill="#2c548c" d="M 622.5,174.5 C 624.833,174.5 627.167,174.5 629.5,174.5C 629.5,176.833 629.5,179.167 629.5,181.5C 627.167,181.5 624.833,181.5 622.5,181.5C 622.5,179.167 622.5,176.833 622.5,174.5 Z"/></g>
<g><path style="opacity:1" fill="#143058" d="M 671.5,188.5 C 673.833,188.5 676.167,188.5 678.5,188.5C 678.5,190.833 678.5,193.167 678.5,195.5C 676.167,195.5 673.833,195.5 671.5,195.5C 671.5,193.167 671.5,190.833 671.5,188.5 Z"/></g>
<g><path style="opacity:1" fill="#2c548c" d="M 699.5,202.5 C 697.167,202.5 694.833,202.5 692.5,202.5C 692.5,197.833 692.5,193.167 692.5,188.5C 694.833,188.5 697.167,188.5 699.5,188.5C 699.5,193.167 699.5,197.833 699.5,202.5 Z"/></g>
<g><path style="opacity:1" fill="#2c548c" d="M 678.5,202.5 C 680.833,202.5 683.167,202.5 685.5,202.5C 685.5,204.833 685.5,207.167 685.5,209.5C 683.167,209.5 680.833,209.5 678.5,209.5C 678.5,207.167 678.5,204.833 678.5,202.5 Z"/></g>
<g><path style="opacity:1" fill="#4474c4" d="M 692.5,202.5 C 694.833,202.5 697.167,202.5 699.5,202.5C 699.5,207.167 699.5,211.833 699.5,216.5C 697.167,216.5 694.833,216.5 692.5,216.5C 692.5,211.833 692.5,207.167 692.5,202.5 Z"/></g>
<g><path style="opacity:1" fill="#2c548c" d="M 706.5,202.5 C 708.833,202.5 711.167,202.5 713.5,202.5C 713.5,204.833 713.5,207.167 713.5,209.5C 711.167,209.5 708.833,209.5 706.5,209.5C 706.5,207.167 706.5,204.833 706.5,202.5 Z"/></g>
<g><path style="opacity:1" fill="#2c548c" d="M 671.5,216.5 C 669.167,216.5 666.833,216.5 664.5,216.5C 664.5,214.167 664.5,211.833 664.5,209.5C 666.833,209.5 669.167,209.5 671.5,209.5C 671.5,211.833 671.5,214.167 671.5,216.5 Z"/></g>
<g><path style="opacity:1" fill="#2c548c" d="M 727.5,209.5 C 727.5,211.833 727.5,214.167 727.5,216.5C 725.167,216.5 722.833,216.5 720.5,216.5C 720.5,214.167 720.5,211.833 720.5,209.5C 722.833,209.5 725.167,209.5 727.5,209.5 Z"/></g>
<g><path style="opacity:1" fill="#1c4b8c" d="M 636.5,216.5 C 638.833,216.5 641.167,216.5 643.5,216.5C 643.5,218.833 643.5,221.167 643.5,223.5C 641.167,223.5 638.833,223.5 636.5,223.5C 636.5,221.167 636.5,218.833 636.5,216.5 Z"/></g>
<g><path style="opacity:1" fill="#2c548c" d="M 671.5,216.5 C 673.833,216.5 676.167,216.5 678.5,216.5C 678.5,218.833 678.5,221.167 678.5,223.5C 678.5,221.167 678.5,218.833 678.5,216.5C 676.167,216.5 673.833,216.5 671.5,216.5 Z"/></g>
<g><path style="opacity:1" fill="#6cf4fb" d="M 692.5,216.5 C 694.833,216.5 697.167,216.5 699.5,216.5C 699.5,221.167 699.5,225.833 699.5,230.5C 697.167,230.5 694.833,230.5 692.5,230.5C 692.5,225.833 692.5,221.167 692.5,216.5 Z"/></g>
<g><path style="opacity:1" fill="#2c548c" d="M 720.5,216.5 C 720.5,218.833 720.5,221.167 720.5,223.5C 718.167,223.5 715.833,223.5 713.5,223.5C 713.5,221.167 713.5,218.833 713.5,216.5C 715.833,216.5 718.167,216.5 720.5,216.5 Z"/></g>
<g><path style="opacity:1" fill="#000000" d="M 111.5,223.5 C 111.5,260.833 111.5,298.167 111.5,335.5C 92.8333,335.5 74.1667,335.5 55.5,335.5C 55.5,298.167 55.5,260.833 55.5,223.5C 74.1667,223.5 92.8333,223.5 111.5,223.5 Z"/></g>
<g><path style="opacity:1" fill="#fefffe" d="M 111.5,223.5 C 148.833,223.5 186.167,223.5 223.5,223.5C 298.167,223.5 372.833,223.5 447.5,223.5C 447.5,242.167 447.5,260.833 447.5,279.5C 466.167,279.5 484.833,279.5 503.5,279.5C 503.5,298.167 503.5,316.833 503.5,335.5C 522.167,335.5 540.833,335.5 559.5,335.5C 559.5,410.167 559.5,484.833 559.5,559.5C 540.833,559.5 522.167,559.5 503.5,559.5C 503.5,503.5 503.5,447.5 503.5,391.5C 466.167,391.5 428.833,391.5 391.5,391.5C 391.5,410.167 391.5,428.833 391.5,447.5C 391.5,484.833 391.5,522.167 391.5,559.5C 391.5,578.167 391.5,596.833 391.5,615.5C 410.167,615.5 428.833,615.5 447.5,615.5C 447.5,634.167 447.5,652.833 447.5,671.5C 428.833,671.5 410.167,671.5 391.5,671.5C 391.5,690.167 391.5,708.833 391.5,727.5C 372.833,727.5 354.167,727.5 335.5,727.5C 316.833,727.5 298.167,727.5 279.5,727.5C 279.5,746.167 279.5,764.833 279.5,783.5C 260.833,783.5 242.167,783.5 223.5,783.5C 223.5,764.833 223.5,746.167 223.5,727.5C 204.833,727.5 186.167,727.5 167.5,727.5C 167.5,708.833 167.5,690.167 167.5,671.5C 148.833,671.5 130.167,671.5 111.5,671.5C 111.5,634.167 111.5,596.833 111.5,559.5C 92.8333,559.5 74.1667,559.5 55.5,559.5C 55.5,484.833 55.5,410.167 55.5,335.5C 74.1667,335.5 92.8333,335.5 111.5,335.5C 111.5,298.167 111.5,260.833 111.5,223.5 Z"/></g>
<g><path style="opacity:1" fill="#edf2f1" d="M 447.5,223.5 C 463.833,223.5 480.167,223.5 496.5,223.5C 496.5,225.833 496.5,228.167 496.5,230.5C 501.167,230.5 505.833,230.5 510.5,230.5C 510.5,232.833 510.5,235.167 510.5,237.5C 522.167,237.5 533.833,237.5 545.5,237.5C 545.5,242.167 545.5,246.833 545.5,251.5C 547.833,251.5 550.167,251.5 552.5,251.5C 552.5,256.167 552.5,260.833 552.5,265.5C 554.833,265.5 557.167,265.5 559.5,265.5C 559.5,288.833 559.5,312.167 559.5,335.5C 540.833,335.5 522.167,335.5 503.5,335.5C 503.5,316.833 503.5,298.167 503.5,279.5C 484.833,279.5 466.167,279.5 447.5,279.5C 447.5,260.833 447.5,242.167 447.5,223.5 Z"/></g>
<g><path style="opacity:1" fill="#d1d1d1" d="M 496.5,223.5 C 517.5,223.5 538.5,223.5 559.5,223.5C 559.5,237.5 559.5,251.5 559.5,265.5C 557.167,265.5 554.833,265.5 552.5,265.5C 552.5,260.833 552.5,256.167 552.5,251.5C 550.167,251.5 547.833,251.5 545.5,251.5C 545.5,246.833 545.5,242.167 545.5,237.5C 533.833,237.5 522.167,237.5 510.5,237.5C 510.5,235.167 510.5,232.833 510.5,230.5C 505.833,230.5 501.167,230.5 496.5,230.5C 496.5,228.167 496.5,225.833 496.5,223.5 Z"/></g>
<g><path style="opacity:1" fill="#000000" d="M 559.5,223.5 C 578.167,223.5 596.833,223.5 615.5,223.5C 615.5,260.833 615.5,298.167 615.5,335.5C 601.5,335.5 587.5,335.5 573.5,335.5C 568.833,335.5 564.167,335.5 559.5,335.5C 559.5,312.167 559.5,288.833 559.5,265.5C 559.5,251.5 559.5,237.5 559.5,223.5 Z"/></g>
<g><path style="opacity:1" fill="#2c548c" d="M 657.5,223.5 C 659.833,223.5 662.167,223.5 664.5,223.5C 664.5,225.833 664.5,228.167 664.5,230.5C 662.167,230.5 659.833,230.5 657.5,230.5C 657.5,228.167 657.5,225.833 657.5,223.5 Z"/></g>
<g><path style="opacity:1" fill="#2c548c" d="M 678.5,223.5 C 680.833,223.5 683.167,223.5 685.5,223.5C 685.5,225.833 685.5,228.167 685.5,230.5C 685.5,228.167 685.5,225.833 685.5,223.5C 683.167,223.5 680.833,223.5 678.5,223.5 Z"/></g>
<g><path style="opacity:1" fill="#2c548c" d="M 713.5,223.5 C 713.5,225.833 713.5,228.167 713.5,230.5C 711.167,230.5 708.833,230.5 706.5,230.5C 706.5,228.167 706.5,225.833 706.5,223.5C 708.833,223.5 711.167,223.5 713.5,223.5 Z"/></g>
<g><path style="opacity:1" fill="#2c548c" d="M 727.5,223.5 C 729.833,223.5 732.167,223.5 734.5,223.5C 734.5,225.833 734.5,228.167 734.5,230.5C 732.167,230.5 729.833,230.5 727.5,230.5C 727.5,228.167 727.5,225.833 727.5,223.5 Z"/></g>
<g><path style="opacity:1" fill="#031212" d="M 783.5,223.5 C 802.167,223.5 820.833,223.5 839.5,223.5C 839.5,279.5 839.5,335.5 839.5,391.5C 820.833,391.5 802.167,391.5 783.5,391.5C 783.5,379.833 783.5,368.167 783.5,356.5C 781.167,356.5 778.833,356.5 776.5,356.5C 776.5,354.167 776.5,351.833 776.5,349.5C 776.5,347.167 776.5,344.833 776.5,342.5C 778.833,342.5 781.167,342.5 783.5,342.5C 783.5,340.167 783.5,337.833 783.5,335.5C 781.167,335.5 778.833,335.5 776.5,335.5C 776.5,333.167 776.5,330.833 776.5,328.5C 778.833,328.5 781.167,328.5 783.5,328.5C 783.5,326.167 783.5,323.833 783.5,321.5C 783.5,288.833 783.5,256.167 783.5,223.5 Z"/></g>
<g><path style="opacity:1" fill="#6cf4fb" d="M 685.5,230.5 C 687.833,230.5 690.167,230.5 692.5,230.5C 692.5,232.833 692.5,235.167 692.5,237.5C 690.167,237.5 687.833,237.5 685.5,237.5C 685.5,235.167 685.5,232.833 685.5,230.5 Z"/></g>
<g><path style="opacity:1" fill="#6cf4fb" d="M 699.5,230.5 C 701.833,230.5 704.167,230.5 706.5,230.5C 706.5,232.833 706.5,235.167 706.5,237.5C 704.167,237.5 701.833,237.5 699.5,237.5C 699.5,235.167 699.5,232.833 699.5,230.5 Z"/></g>
<g><path style="opacity:1" fill="#2c548c" d="M 657.5,237.5 C 657.5,239.833 657.5,242.167 657.5,244.5C 652.833,244.5 648.167,244.5 643.5,244.5C 643.5,242.167 643.5,239.833 643.5,237.5C 648.167,237.5 652.833,237.5 657.5,237.5 Z"/></g>
<g><path style="opacity:1" fill="#4474c4" d="M 657.5,237.5 C 662.167,237.5 666.833,237.5 671.5,237.5C 671.5,239.833 671.5,242.167 671.5,244.5C 666.833,244.5 662.167,244.5 657.5,244.5C 657.5,242.167 657.5,239.833 657.5,237.5 Z"/></g>
<g><path style="opacity:1" fill="#6cf4fb" d="M 671.5,237.5 C 676.167,237.5 680.833,237.5 685.5,237.5C 685.5,239.833 685.5,242.167 685.5,244.5C 680.833,244.5 676.167,244.5 671.5,244.5C 671.5,242.167 671.5,239.833 671.5,237.5 Z"/></g>
<g><path style="opacity:1" fill="#fafdfc" d="M 692.5,230.5 C 694.833,230.5 697.167,230.5 699.5,230.5C 699.5,232.833 699.5,235.167 699.5,237.5C 701.833,237.5 704.167,237.5 706.5,237.5C 706.5,239.833 706.5,242.167 706.5,244.5C 704.167,244.5 701.833,244.5 699.5,244.5C 699.5,246.833 699.5,249.167 699.5,251.5C 697.167,251.5 694.833,251.5 692.5,251.5C 692.5,249.167 692.5,246.833 692.5,244.5C 690.167,244.5 687.833,244.5 685.5,244.5C 685.5,242.167 685.5,239.833 685.5,237.5C 687.833,237.5 690.167,237.5 692.5,237.5C 692.5,235.167 692.5,232.833 692.5,230.5 Z"/></g>
<g><path style="opacity:1" fill="#6cf4fb" d="M 706.5,237.5 C 711.167,237.5 715.833,237.5 720.5,237.5C 720.5,239.833 720.5,242.167 720.5,244.5C 715.833,244.5 711.167,244.5 706.5,244.5C 706.5,242.167 706.5,239.833 706.5,237.5 Z"/></g>
<g><path style="opacity:1" fill="#4474c4" d="M 720.5,237.5 C 725.167,237.5 729.833,237.5 734.5,237.5C 734.5,239.833 734.5,242.167 734.5,244.5C 729.833,244.5 725.167,244.5 720.5,244.5C 720.5,242.167 720.5,239.833 720.5,237.5 Z"/></g>
<g><path style="opacity:1" fill="#2c548c" d="M 734.5,237.5 C 739.167,237.5 743.833,237.5 748.5,237.5C 748.5,239.833 748.5,242.167 748.5,244.5C 743.833,244.5 739.167,244.5 734.5,244.5C 734.5,242.167 734.5,239.833 734.5,237.5 Z"/></g>
<g><path style="opacity:1" fill="#6cf4fb" d="M 685.5,244.5 C 687.833,244.5 690.167,244.5 692.5,244.5C 692.5,246.833 692.5,249.167 692.5,251.5C 690.167,251.5 687.833,251.5 685.5,251.5C 685.5,249.167 685.5,246.833 685.5,244.5 Z"/></g>
<g><path style="opacity:1" fill="#6cf4fb" d="M 706.5,244.5 C 706.5,246.833 706.5,249.167 706.5,251.5C 704.167,251.5 701.833,251.5 699.5,251.5C 699.5,249.167 699.5,246.833 699.5,244.5C 701.833,244.5 704.167,244.5 706.5,244.5 Z"/></g>
<g><path style="opacity:1" fill="#2c548c" d="M 657.5,251.5 C 659.833,251.5 662.167,251.5 664.5,251.5C 664.5,253.833 664.5,256.167 664.5,258.5C 662.167,258.5 659.833,258.5 657.5,258.5C 657.5,256.167 657.5,253.833 657.5,251.5 Z"/></g>
<g><path style="opacity:1" fill="#2c548c" d="M 685.5,251.5 C 685.5,253.833 685.5,256.167 685.5,258.5C 683.167,258.5 680.833,258.5 678.5,258.5C 678.5,256.167 678.5,253.833 678.5,251.5C 680.833,251.5 683.167,251.5 685.5,251.5 Z"/></g>
<g><path style="opacity:1" fill="#6cf4fb" d="M 692.5,251.5 C 694.833,251.5 697.167,251.5 699.5,251.5C 699.5,256.167 699.5,260.833 699.5,265.5C 697.167,265.5 694.833,265.5 692.5,265.5C 692.5,260.833 692.5,256.167 692.5,251.5 Z"/></g>
<g><path style="opacity:1" fill="#2c548c" d="M 706.5,251.5 C 708.833,251.5 711.167,251.5 713.5,251.5C 713.5,253.833 713.5,256.167 713.5,258.5C 713.5,256.167 713.5,253.833 713.5,251.5C 711.167,251.5 708.833,251.5 706.5,251.5 Z"/></g>
<g><path style="opacity:1" fill="#2c548c" d="M 727.5,251.5 C 729.833,251.5 732.167,251.5 734.5,251.5C 734.5,253.833 734.5,256.167 734.5,258.5C 732.167,258.5 729.833,258.5 727.5,258.5C 727.5,256.167 727.5,253.833 727.5,251.5 Z"/></g>
<g><path style="opacity:1" fill="#2c548c" d="M 678.5,258.5 C 678.5,260.833 678.5,263.167 678.5,265.5C 676.167,265.5 673.833,265.5 671.5,265.5C 671.5,263.167 671.5,260.833 671.5,258.5C 673.833,258.5 676.167,258.5 678.5,258.5 Z"/></g>
<g><path style="opacity:1" fill="#2c548c" d="M 713.5,258.5 C 715.833,258.5 718.167,258.5 720.5,258.5C 720.5,260.833 720.5,263.167 720.5,265.5C 720.5,263.167 720.5,260.833 720.5,258.5C 718.167,258.5 715.833,258.5 713.5,258.5 Z"/></g>
<g><path style="opacity:1" fill="#2c548c" d="M 671.5,265.5 C 671.5,267.833 671.5,270.167 671.5,272.5C 669.167,272.5 666.833,272.5 664.5,272.5C 664.5,270.167 664.5,267.833 664.5,265.5C 666.833,265.5 669.167,265.5 671.5,265.5 Z"/></g>
<g><path style="opacity:1" fill="#4474c4" d="M 692.5,265.5 C 694.833,265.5 697.167,265.5 699.5,265.5C 699.5,270.167 699.5,274.833 699.5,279.5C 697.167,279.5 694.833,279.5 692.5,279.5C 692.5,274.833 692.5,270.167 692.5,265.5 Z"/></g>
<g><path style="opacity:1" fill="#2c548c" d="M 720.5,265.5 C 722.833,265.5 725.167,265.5 727.5,265.5C 727.5,267.833 727.5,270.167 727.5,272.5C 725.167,272.5 722.833,272.5 720.5,272.5C 720.5,270.167 720.5,267.833 720.5,265.5 Z"/></g>
<g><path style="opacity:1" fill="#2c548c" d="M 622.5,272.5 C 624.833,272.5 627.167,272.5 629.5,272.5C 629.5,274.833 629.5,277.167 629.5,279.5C 627.167,279.5 624.833,279.5 622.5,279.5C 622.5,277.167 622.5,274.833 622.5,272.5 Z"/></g>
<g><path style="opacity:1" fill="#2c548c" d="M 678.5,272.5 C 680.833,272.5 683.167,272.5 685.5,272.5C 685.5,274.833 685.5,277.167 685.5,279.5C 683.167,279.5 680.833,279.5 678.5,279.5C 678.5,277.167 678.5,274.833 678.5,272.5 Z"/></g>
<g><path style="opacity:1" fill="#2c548c" d="M 706.5,272.5 C 708.833,272.5 711.167,272.5 713.5,272.5C 713.5,274.833 713.5,277.167 713.5,279.5C 711.167,279.5 708.833,279.5 706.5,279.5C 706.5,277.167 706.5,274.833 706.5,272.5 Z"/></g>
<g><path style="opacity:1" fill="#2c548c" d="M 762.5,272.5 C 764.833,272.5 767.167,272.5 769.5,272.5C 769.5,274.833 769.5,277.167 769.5,279.5C 767.167,279.5 764.833,279.5 762.5,279.5C 762.5,277.167 762.5,274.833 762.5,272.5 Z"/></g>
<g><path style="opacity:1" fill="#2c548c" d="M 692.5,279.5 C 694.833,279.5 697.167,279.5 699.5,279.5C 699.5,284.167 699.5,288.833 699.5,293.5C 697.167,293.5 694.833,293.5 692.5,293.5C 692.5,288.833 692.5,284.167 692.5,279.5 Z"/></g>
<g><path style="opacity:1" fill="#2c548c" d="M 769.5,321.5 C 767.167,321.5 764.833,321.5 762.5,321.5C 762.5,316.833 762.5,312.167 762.5,307.5C 764.833,307.5 767.167,307.5 769.5,307.5C 769.5,312.167 769.5,316.833 769.5,321.5 Z"/></g>
<g><path style="opacity:1" fill="#2c548c" d="M 692.5,314.5 C 694.833,314.5 697.167,314.5 699.5,314.5C 699.5,316.833 699.5,319.167 699.5,321.5C 697.167,321.5 694.833,321.5 692.5,321.5C 692.5,319.167 692.5,316.833 692.5,314.5 Z"/></g>
<g><path style="opacity:1" fill="#2c548c" d="M 748.5,321.5 C 746.167,321.5 743.833,321.5 741.5,321.5C 741.5,319.167 741.5,316.833 741.5,314.5C 743.833,314.5 746.167,314.5 748.5,314.5C 748.5,316.833 748.5,319.167 748.5,321.5 Z"/></g>
<g><path style="opacity:1" fill="#143058" d="M 636.5,321.5 C 638.833,321.5 641.167,321.5 643.5,321.5C 643.5,323.833 643.5,326.167 643.5,328.5C 641.167,328.5 638.833,328.5 636.5,328.5C 636.5,326.167 636.5,323.833 636.5,321.5 Z"/></g>
<g><path style="opacity:1" fill="#2c548c" d="M 748.5,321.5 C 750.833,321.5 753.167,321.5 755.5,321.5C 755.5,323.833 755.5,326.167 755.5,328.5C 755.5,326.167 755.5,323.833 755.5,321.5C 753.167,321.5 750.833,321.5 748.5,321.5 Z"/></g>
<g><path style="opacity:1" fill="#4474c4" d="M 762.5,321.5 C 764.833,321.5 767.167,321.5 769.5,321.5C 769.5,323.833 769.5,326.167 769.5,328.5C 767.167,328.5 764.833,328.5 762.5,328.5C 762.5,326.167 762.5,323.833 762.5,321.5 Z"/></g>
<g><path style="opacity:1" fill="#2c548c" d="M 783.5,321.5 C 783.5,323.833 783.5,326.167 783.5,328.5C 781.167,328.5 778.833,328.5 776.5,328.5C 776.5,326.167 776.5,323.833 776.5,321.5C 778.833,321.5 781.167,321.5 783.5,321.5 Z"/></g>
<g><path style="opacity:1" fill="#4474c4" d="M 755.5,328.5 C 757.833,328.5 760.167,328.5 762.5,328.5C 762.5,330.833 762.5,333.167 762.5,335.5C 760.167,335.5 757.833,335.5 755.5,335.5C 755.5,333.167 755.5,330.833 755.5,328.5 Z"/></g>
<g><path style="opacity:1" fill="#f7fcfb" d="M 762.5,328.5 C 764.833,328.5 767.167,328.5 769.5,328.5C 769.5,330.833 769.5,333.167 769.5,335.5C 771.833,335.5 774.167,335.5 776.5,335.5C 776.5,337.833 776.5,340.167 776.5,342.5C 774.167,342.5 771.833,342.5 769.5,342.5C 769.5,344.833 769.5,347.167 769.5,349.5C 767.167,349.5 764.833,349.5 762.5,349.5C 762.5,347.167 762.5,344.833 762.5,342.5C 760.167,342.5 757.833,342.5 755.5,342.5C 755.5,340.167 755.5,337.833 755.5,335.5C 757.833,335.5 760.167,335.5 762.5,335.5C 762.5,333.167 762.5,330.833 762.5,328.5 Z"/></g>
<g><path style="opacity:1" fill="#4474c4" d="M 769.5,328.5 C 771.833,328.5 774.167,328.5 776.5,328.5C 776.5,330.833 776.5,333.167 776.5,335.5C 774.167,335.5 771.833,335.5 769.5,335.5C 769.5,333.167 769.5,330.833 769.5,328.5 Z"/></g>
<g><path style="opacity:1" fill="#000000" d="M -0.5,335.5 C 18.1667,335.5 36.8333,335.5 55.5,335.5C 55.5,410.167 55.5,484.833 55.5,559.5C 36.8333,559.5 18.1667,559.5 -0.5,559.5C -0.5,484.833 -0.5,410.167 -0.5,335.5 Z"/></g>
<g><path style="opacity:1" fill="#edf1f1" d="M 559.5,335.5 C 564.167,335.5 568.833,335.5 573.5,335.5C 573.5,340.167 573.5,344.833 573.5,349.5C 578.167,349.5 582.833,349.5 587.5,349.5C 587.5,351.833 587.5,354.167 587.5,356.5C 592.167,356.5 596.833,356.5 601.5,356.5C 601.5,358.833 601.5,361.167 601.5,363.5C 603.833,363.5 606.167,363.5 608.5,363.5C 608.5,368.167 608.5,372.833 608.5,377.5C 610.833,377.5 613.167,377.5 615.5,377.5C 615.5,419.5 615.5,461.5 615.5,503.5C 613.167,503.5 610.833,503.5 608.5,503.5C 608.5,508.167 608.5,512.833 608.5,517.5C 606.167,517.5 603.833,517.5 601.5,517.5C 601.5,526.833 601.5,536.167 601.5,545.5C 599.167,545.5 596.833,545.5 594.5,545.5C 594.5,547.833 594.5,550.167 594.5,552.5C 589.833,552.5 585.167,552.5 580.5,552.5C 580.5,554.833 580.5,557.167 580.5,559.5C 573.5,559.5 566.5,559.5 559.5,559.5C 559.5,484.833 559.5,410.167 559.5,335.5 Z"/></g>
<g><path style="opacity:1" fill="#000000" d="M 615.5,335.5 C 634.167,335.5 652.833,335.5 671.5,335.5C 671.5,410.167 671.5,484.833 671.5,559.5C 669.167,559.5 666.833,559.5 664.5,559.5C 664.5,561.833 664.5,564.167 664.5,566.5C 662.167,566.5 659.833,566.5 657.5,566.5C 657.5,564.167 657.5,561.833 657.5,559.5C 655.167,559.5 652.833,559.5 650.5,559.5C 650.5,561.833 650.5,564.167 650.5,566.5C 648.167,566.5 645.833,566.5 643.5,566.5C 643.5,564.167 643.5,561.833 643.5,559.5C 641.167,559.5 638.833,559.5 636.5,559.5C 629.5,559.5 622.5,559.5 615.5,559.5C 615.5,540.833 615.5,522.167 615.5,503.5C 615.5,461.5 615.5,419.5 615.5,377.5C 615.5,363.5 615.5,349.5 615.5,335.5 Z"/></g>
<g><path style="opacity:1" fill="#2c548c" d="M 748.5,335.5 C 748.5,337.833 748.5,340.167 748.5,342.5C 743.833,342.5 739.167,342.5 734.5,342.5C 734.5,340.167 734.5,337.833 734.5,335.5C 739.167,335.5 743.833,335.5 748.5,335.5 Z"/></g>
<g><path style="opacity:1" fill="#4474c4" d="M 748.5,335.5 C 750.833,335.5 753.167,335.5 755.5,335.5C 755.5,337.833 755.5,340.167 755.5,342.5C 753.167,342.5 750.833,342.5 748.5,342.5C 748.5,340.167 748.5,337.833 748.5,335.5 Z"/></g>
<g><path style="opacity:1" fill="#4474c4" d="M 776.5,335.5 C 778.833,335.5 781.167,335.5 783.5,335.5C 783.5,337.833 783.5,340.167 783.5,342.5C 781.167,342.5 778.833,342.5 776.5,342.5C 776.5,340.167 776.5,337.833 776.5,335.5 Z"/></g>
<g><path style="opacity:1" fill="#dadada" d="M 573.5,335.5 C 587.5,335.5 601.5,335.5 615.5,335.5C 615.5,349.5 615.5,363.5 615.5,377.5C 613.167,377.5 610.833,377.5 608.5,377.5C 608.5,372.833 608.5,368.167 608.5,363.5C 606.167,363.5 603.833,363.5 601.5,363.5C 601.5,361.167 601.5,358.833 601.5,356.5C 596.833,356.5 592.167,356.5 587.5,356.5C 587.5,354.167 587.5,351.833 587.5,349.5C 582.833,349.5 578.167,349.5 573.5,349.5C 573.5,344.833 573.5,340.167 573.5,335.5 Z"/></g>
<g><path style="opacity:1" fill="#4474c4" d="M 755.5,342.5 C 757.833,342.5 760.167,342.5 762.5,342.5C 762.5,344.833 762.5,347.167 762.5,349.5C 760.167,349.5 757.833,349.5 755.5,349.5C 755.5,347.167 755.5,344.833 755.5,342.5 Z"/></g>
<g><path style="opacity:1" fill="#4474c4" d="M 776.5,342.5 C 776.5,344.833 776.5,347.167 776.5,349.5C 774.167,349.5 771.833,349.5 769.5,349.5C 769.5,347.167 769.5,344.833 769.5,342.5C 771.833,342.5 774.167,342.5 776.5,342.5 Z"/></g>
<g><path style="opacity:1" fill="#2c548c" d="M 685.5,349.5 C 687.833,349.5 690.167,349.5 692.5,349.5C 692.5,351.833 692.5,354.167 692.5,356.5C 690.167,356.5 687.833,356.5 685.5,356.5C 685.5,354.167 685.5,351.833 685.5,349.5 Z"/></g>
<g><path style="opacity:1" fill="#2c548c" d="M 755.5,349.5 C 755.5,351.833 755.5,354.167 755.5,356.5C 753.167,356.5 750.833,356.5 748.5,356.5C 748.5,354.167 748.5,351.833 748.5,349.5C 750.833,349.5 753.167,349.5 755.5,349.5 Z"/></g>
<g><path style="opacity:1" fill="#4474c4" d="M 762.5,349.5 C 764.833,349.5 767.167,349.5 769.5,349.5C 769.5,351.833 769.5,354.167 769.5,356.5C 767.167,356.5 764.833,356.5 762.5,356.5C 762.5,354.167 762.5,351.833 762.5,349.5 Z"/></g>
<g><path style="opacity:1" fill="#2c548c" d="M 776.5,349.5 C 778.833,349.5 781.167,349.5 783.5,349.5C 783.5,351.833 783.5,354.167 783.5,356.5C 783.5,354.167 783.5,351.833 783.5,349.5C 781.167,349.5 778.833,349.5 776.5,349.5 Z"/></g>
<g><path style="opacity:1" fill="#2c548c" d="M 748.5,356.5 C 748.5,358.833 748.5,361.167 748.5,363.5C 746.167,363.5 743.833,363.5 741.5,363.5C 741.5,361.167 741.5,358.833 741.5,356.5C 743.833,356.5 746.167,356.5 748.5,356.5 Z"/></g>
<g><path style="opacity:1" fill="#2c548c" d="M 762.5,356.5 C 764.833,356.5 767.167,356.5 769.5,356.5C 769.5,361.167 769.5,365.833 769.5,370.5C 767.167,370.5 764.833,370.5 762.5,370.5C 762.5,365.833 762.5,361.167 762.5,356.5 Z"/></g>
<g><path style="opacity:1" fill="#2c548c" d="M 720.5,363.5 C 722.833,363.5 725.167,363.5 727.5,363.5C 727.5,365.833 727.5,368.167 727.5,370.5C 725.167,370.5 722.833,370.5 720.5,370.5C 720.5,368.167 720.5,365.833 720.5,363.5 Z"/></g>
<g><path style="opacity:1" fill="#000000" d="M 279.5,447.5 C 260.833,447.5 242.167,447.5 223.5,447.5C 223.5,484.833 223.5,522.167 223.5,559.5C 204.833,559.5 186.167,559.5 167.5,559.5C 167.5,503.5 167.5,447.5 167.5,391.5C 204.833,391.5 242.167,391.5 279.5,391.5C 279.5,410.167 279.5,428.833 279.5,447.5 Z"/></g>
<g><path style="opacity:1" fill="#000000" d="M 503.5,559.5 C 484.833,559.5 466.167,559.5 447.5,559.5C 447.5,522.167 447.5,484.833 447.5,447.5C 428.833,447.5 410.167,447.5 391.5,447.5C 391.5,428.833 391.5,410.167 391.5,391.5C 428.833,391.5 466.167,391.5 503.5,391.5C 503.5,447.5 503.5,503.5 503.5,559.5 Z"/></g>
<g><path style="opacity:1" fill="#031212" d="M 783.5,391.5 C 783.5,447.5 783.5,503.5 783.5,559.5C 764.833,559.5 746.167,559.5 727.5,559.5C 727.5,545.5 727.5,531.5 727.5,517.5C 725.167,517.5 722.833,517.5 720.5,517.5C 720.5,515.167 720.5,512.833 720.5,510.5C 718.167,510.5 715.833,510.5 713.5,510.5C 713.5,508.167 713.5,505.833 713.5,503.5C 713.5,501.167 713.5,498.833 713.5,496.5C 715.833,496.5 718.167,496.5 720.5,496.5C 720.5,494.167 720.5,491.833 720.5,489.5C 722.833,489.5 725.167,489.5 727.5,489.5C 727.5,487.167 727.5,484.833 727.5,482.5C 727.5,452.167 727.5,421.833 727.5,391.5C 746.167,391.5 764.833,391.5 783.5,391.5 Z"/></g>
<g><path style="opacity:1" fill="#2c548c" d="M 692.5,398.5 C 694.833,398.5 697.167,398.5 699.5,398.5C 699.5,400.833 699.5,403.167 699.5,405.5C 697.167,405.5 694.833,405.5 692.5,405.5C 692.5,403.167 692.5,400.833 692.5,398.5 Z"/></g>
<g><path style="opacity:1" fill="#2c548c" d="M 699.5,433.5 C 701.833,433.5 704.167,433.5 706.5,433.5C 706.5,435.833 706.5,438.167 706.5,440.5C 704.167,440.5 701.833,440.5 699.5,440.5C 699.5,438.167 699.5,435.833 699.5,433.5 Z"/></g>
<g><path style="opacity:1" fill="#0f0f28" d="M 279.5,447.5 C 279.5,484.833 279.5,522.167 279.5,559.5C 260.833,559.5 242.167,559.5 223.5,559.5C 223.5,522.167 223.5,484.833 223.5,447.5C 242.167,447.5 260.833,447.5 279.5,447.5 Z"/></g>
<g><path style="opacity:1" fill="#0f0f28" d="M 391.5,447.5 C 410.167,447.5 428.833,447.5 447.5,447.5C 447.5,484.833 447.5,522.167 447.5,559.5C 428.833,559.5 410.167,559.5 391.5,559.5C 391.5,522.167 391.5,484.833 391.5,447.5 Z"/></g>
<g><path style="opacity:1" fill="#143058" d="M 678.5,454.5 C 680.833,454.5 683.167,454.5 685.5,454.5C 685.5,456.833 685.5,459.167 685.5,461.5C 683.167,461.5 680.833,461.5 678.5,461.5C 678.5,459.167 678.5,456.833 678.5,454.5 Z"/></g>
<g><path style="opacity:1" fill="#2c548c" d="M 699.5,489.5 C 697.167,489.5 694.833,489.5 692.5,489.5C 692.5,487.167 692.5,484.833 692.5,482.5C 694.833,482.5 697.167,482.5 699.5,482.5C 699.5,484.833 699.5,487.167 699.5,489.5 Z"/></g>
<g><path style="opacity:1" fill="#2c548c" d="M 727.5,482.5 C 727.5,484.833 727.5,487.167 727.5,489.5C 725.167,489.5 722.833,489.5 720.5,489.5C 720.5,487.167 720.5,484.833 720.5,482.5C 722.833,482.5 725.167,482.5 727.5,482.5 Z"/></g>
<g><path style="opacity:1" fill="#4474c4" d="M 699.5,489.5 C 701.833,489.5 704.167,489.5 706.5,489.5C 706.5,491.833 706.5,494.167 706.5,496.5C 706.5,494.167 706.5,491.833 706.5,489.5C 704.167,489.5 701.833,489.5 699.5,489.5 Z"/></g>
<g><path style="opacity:1" fill="#4474c4" d="M 720.5,489.5 C 720.5,491.833 720.5,494.167 720.5,496.5C 718.167,496.5 715.833,496.5 713.5,496.5C 713.5,494.167 713.5,491.833 713.5,489.5C 715.833,489.5 718.167,489.5 720.5,489.5 Z"/></g>
<g><path style="opacity:1" fill="#f7fcfb" d="M 706.5,496.5 C 708.833,496.5 711.167,496.5 713.5,496.5C 713.5,498.833 713.5,501.167 713.5,503.5C 711.167,503.5 708.833,503.5 706.5,503.5C 706.5,501.167 706.5,498.833 706.5,496.5 Z"/></g>
<g><path style="opacity:1" fill="#4474c4" d="M 706.5,503.5 C 706.5,505.833 706.5,508.167 706.5,510.5C 704.167,510.5 701.833,510.5 699.5,510.5C 699.5,508.167 699.5,505.833 699.5,503.5C 701.833,503.5 704.167,503.5 706.5,503.5 Z"/></g>
<g><path style="opacity:1" fill="#4474c4" d="M 713.5,503.5 C 715.833,503.5 718.167,503.5 720.5,503.5C 720.5,505.833 720.5,508.167 720.5,510.5C 720.5,508.167 720.5,505.833 720.5,503.5C 718.167,503.5 715.833,503.5 713.5,503.5 Z"/></g>
<g><path style="opacity:1" fill="#2c548c" d="M 699.5,510.5 C 699.5,512.833 699.5,515.167 699.5,517.5C 697.167,517.5 694.833,517.5 692.5,517.5C 692.5,515.167 692.5,512.833 692.5,510.5C 694.833,510.5 697.167,510.5 699.5,510.5 Z"/></g>
<g><path style="opacity:1" fill="#2c548c" d="M 720.5,510.5 C 722.833,510.5 725.167,510.5 727.5,510.5C 727.5,512.833 727.5,515.167 727.5,517.5C 727.5,515.167 727.5,512.833 727.5,510.5C 725.167,510.5 722.833,510.5 720.5,510.5 Z"/></g>
<g><path style="opacity:1" fill="#d2d2d2" d="M 615.5,503.5 C 615.5,522.167 615.5,540.833 615.5,559.5C 603.833,559.5 592.167,559.5 580.5,559.5C 580.5,557.167 580.5,554.833 580.5,552.5C 585.167,552.5 589.833,552.5 594.5,552.5C 594.5,550.167 594.5,547.833 594.5,545.5C 596.833,545.5 599.167,545.5 601.5,545.5C 601.5,536.167 601.5,526.833 601.5,517.5C 603.833,517.5 606.167,517.5 608.5,517.5C 608.5,512.833 608.5,508.167 608.5,503.5C 610.833,503.5 613.167,503.5 615.5,503.5 Z"/></g>
<g><path style="opacity:1" fill="#2c548c" d="M 678.5,524.5 C 680.833,524.5 683.167,524.5 685.5,524.5C 685.5,526.833 685.5,529.167 685.5,531.5C 683.167,531.5 680.833,531.5 678.5,531.5C 678.5,529.167 678.5,526.833 678.5,524.5 Z"/></g>
<g><path style="opacity:1" fill="#1c4b8c" d="M 699.5,545.5 C 701.833,545.5 704.167,545.5 706.5,545.5C 706.5,547.833 706.5,550.167 706.5,552.5C 704.167,552.5 701.833,552.5 699.5,552.5C 699.5,550.167 699.5,547.833 699.5,545.5 Z"/></g>
<g><path style="opacity:1" fill="#000000" d="M 55.5,559.5 C 74.1667,559.5 92.8333,559.5 111.5,559.5C 111.5,596.833 111.5,634.167 111.5,671.5C 92.8333,671.5 74.1667,671.5 55.5,671.5C 55.5,634.167 55.5,596.833 55.5,559.5 Z"/></g>
<g><path style="opacity:1" fill="#000000" d="M 223.5,559.5 C 242.167,559.5 260.833,559.5 279.5,559.5C 279.5,578.167 279.5,596.833 279.5,615.5C 260.833,615.5 242.167,615.5 223.5,615.5C 223.5,596.833 223.5,578.167 223.5,559.5 Z"/></g>
<g><path style="opacity:1" fill="#000000" d="M 391.5,559.5 C 410.167,559.5 428.833,559.5 447.5,559.5C 447.5,578.167 447.5,596.833 447.5,615.5C 428.833,615.5 410.167,615.5 391.5,615.5C 391.5,596.833 391.5,578.167 391.5,559.5 Z"/></g>
<g><path style="opacity:1" fill="#fefffe" d="M 447.5,559.5 C 466.167,559.5 484.833,559.5 503.5,559.5C 503.5,578.167 503.5,596.833 503.5,615.5C 484.833,615.5 466.167,615.5 447.5,615.5C 447.5,596.833 447.5,578.167 447.5,559.5 Z"/></g>
<g><path style="opacity:1" fill="#edf2f1" d="M 503.5,559.5 C 522.167,559.5 540.833,559.5 559.5,559.5C 559.5,580.5 559.5,601.5 559.5,622.5C 557.167,622.5 554.833,622.5 552.5,622.5C 552.5,627.167 552.5,631.833 552.5,636.5C 550.167,636.5 547.833,636.5 545.5,636.5C 545.5,643.5 545.5,650.5 545.5,657.5C 543.167,657.5 540.833,657.5 538.5,657.5C 538.5,659.833 538.5,662.167 538.5,664.5C 533.833,664.5 529.167,664.5 524.5,664.5C 524.5,666.833 524.5,669.167 524.5,671.5C 498.833,671.5 473.167,671.5 447.5,671.5C 447.5,652.833 447.5,634.167 447.5,615.5C 466.167,615.5 484.833,615.5 503.5,615.5C 503.5,596.833 503.5,578.167 503.5,559.5 Z"/></g>
<g><path style="opacity:1" fill="#000000" d="M 559.5,559.5 C 566.5,559.5 573.5,559.5 580.5,559.5C 592.167,559.5 603.833,559.5 615.5,559.5C 615.5,564.167 615.5,568.833 615.5,573.5C 615.5,575.833 615.5,578.167 615.5,580.5C 615.5,592.167 615.5,603.833 615.5,615.5C 615.5,634.167 615.5,652.833 615.5,671.5C 596.833,671.5 578.167,671.5 559.5,671.5C 559.5,655.167 559.5,638.833 559.5,622.5C 559.5,601.5 559.5,580.5 559.5,559.5 Z"/></g>
<g><path style="opacity:1" fill="#04181f" d="M 615.5,559.5 C 622.5,559.5 629.5,559.5 636.5,559.5C 638.833,559.5 641.167,559.5 643.5,559.5C 643.5,561.833 643.5,564.167 643.5,566.5C 643.5,568.833 643.5,571.167 643.5,573.5C 638.833,573.5 634.167,573.5 629.5,573.5C 629.5,575.833 629.5,578.167 629.5,580.5C 634.167,580.5 638.833,580.5 643.5,580.5C 643.5,582.833 643.5,585.167 643.5,587.5C 645.833,587.5 648.167,587.5 650.5,587.5C 650.5,592.167 650.5,596.833 650.5,601.5C 652.833,601.5 655.167,601.5 657.5,601.5C 657.5,596.833 657.5,592.167 657.5,587.5C 659.833,587.5 662.167,587.5 664.5,587.5C 664.5,589.833 664.5,592.167 664.5,594.5C 666.833,594.5 669.167,594.5 671.5,594.5C 671.5,601.5 671.5,608.5 671.5,615.5C 652.833,615.5 634.167,615.5 615.5,615.5C 615.5,603.833 615.5,592.167 615.5,580.5C 617.833,580.5 620.167,580.5 622.5,580.5C 622.5,578.167 622.5,575.833 622.5,573.5C 620.167,573.5 617.833,573.5 615.5,573.5C 615.5,568.833 615.5,564.167 615.5,559.5 Z"/></g>
<g><path style="opacity:1" fill="#1c4b8c" d="M 636.5,559.5 C 638.833,559.5 641.167,559.5 643.5,559.5C 643.5,561.833 643.5,564.167 643.5,566.5C 641.167,566.5 638.833,566.5 636.5,566.5C 636.5,564.167 636.5,561.833 636.5,559.5 Z"/></g>
<g><path style="opacity:1" fill="#1c4b8c" d="M 664.5,566.5 C 664.5,568.833 664.5,571.167 664.5,573.5C 666.833,573.5 669.167,573.5 671.5,573.5C 671.5,575.833 671.5,578.167 671.5,580.5C 669.167,580.5 666.833,580.5 664.5,580.5C 664.5,582.833 664.5,585.167 664.5,587.5C 662.167,587.5 659.833,587.5 657.5,587.5C 657.5,592.167 657.5,596.833 657.5,601.5C 655.167,601.5 652.833,601.5 650.5,601.5C 650.5,596.833 650.5,592.167 650.5,587.5C 648.167,587.5 645.833,587.5 643.5,587.5C 643.5,585.167 643.5,582.833 643.5,580.5C 638.833,580.5 634.167,580.5 629.5,580.5C 629.5,578.167 629.5,575.833 629.5,573.5C 634.167,573.5 638.833,573.5 643.5,573.5C 643.5,571.167 643.5,568.833 643.5,566.5C 645.833,566.5 648.167,566.5 650.5,566.5C 650.5,564.167 650.5,561.833 650.5,559.5C 652.833,559.5 655.167,559.5 657.5,559.5C 657.5,561.833 657.5,564.167 657.5,566.5C 659.833,566.5 662.167,566.5 664.5,566.5 Z"/></g>
<g><path style="opacity:1" fill="#1c4b8c" d="M 671.5,559.5 C 671.5,561.833 671.5,564.167 671.5,566.5C 669.167,566.5 666.833,566.5 664.5,566.5C 664.5,564.167 664.5,561.833 664.5,559.5C 666.833,559.5 669.167,559.5 671.5,559.5 Z"/></g>
<g><path style="opacity:1" fill="#031212" d="M 671.5,559.5 C 690.167,559.5 708.833,559.5 727.5,559.5C 727.5,578.167 727.5,596.833 727.5,615.5C 708.833,615.5 690.167,615.5 671.5,615.5C 671.5,608.5 671.5,601.5 671.5,594.5C 669.167,594.5 666.833,594.5 664.5,594.5C 664.5,592.167 664.5,589.833 664.5,587.5C 664.5,585.167 664.5,582.833 664.5,580.5C 666.833,580.5 669.167,580.5 671.5,580.5C 671.5,578.167 671.5,575.833 671.5,573.5C 669.167,573.5 666.833,573.5 664.5,573.5C 664.5,571.167 664.5,568.833 664.5,566.5C 666.833,566.5 669.167,566.5 671.5,566.5C 671.5,564.167 671.5,561.833 671.5,559.5 Z"/></g>
<g><path style="opacity:1" fill="#073635" d="M 727.5,559.5 C 746.167,559.5 764.833,559.5 783.5,559.5C 783.5,596.833 783.5,634.167 783.5,671.5C 764.833,671.5 746.167,671.5 727.5,671.5C 727.5,690.167 727.5,708.833 727.5,727.5C 690.167,727.5 652.833,727.5 615.5,727.5C 615.5,746.167 615.5,764.833 615.5,783.5C 559.5,783.5 503.5,783.5 447.5,783.5C 447.5,764.833 447.5,746.167 447.5,727.5C 484.833,727.5 522.167,727.5 559.5,727.5C 559.5,708.833 559.5,690.167 559.5,671.5C 578.167,671.5 596.833,671.5 615.5,671.5C 634.167,671.5 652.833,671.5 671.5,671.5C 671.5,652.833 671.5,634.167 671.5,615.5C 690.167,615.5 708.833,615.5 727.5,615.5C 727.5,596.833 727.5,578.167 727.5,559.5 Z"/></g>
<g><path style="opacity:1" fill="#143058" d="M 615.5,573.5 C 617.833,573.5 620.167,573.5 622.5,573.5C 622.5,575.833 622.5,578.167 622.5,580.5C 620.167,580.5 617.833,580.5 615.5,580.5C 615.5,578.167 615.5,575.833 615.5,573.5 Z"/></g>
<g><path style="opacity:1" fill="#f7fcfb" d="M 650.5,573.5 C 652.833,573.5 655.167,573.5 657.5,573.5C 657.5,575.833 657.5,578.167 657.5,580.5C 655.167,580.5 652.833,580.5 650.5,580.5C 650.5,578.167 650.5,575.833 650.5,573.5 Z"/></g>
<g><path style="opacity:1" fill="#1c4b8c" d="M 643.5,587.5 C 643.5,589.833 643.5,592.167 643.5,594.5C 641.167,594.5 638.833,594.5 636.5,594.5C 636.5,592.167 636.5,589.833 636.5,587.5C 638.833,587.5 641.167,587.5 643.5,587.5 Z"/></g>
<g><path style="opacity:1" fill="#1c4b8c" d="M 664.5,587.5 C 666.833,587.5 669.167,587.5 671.5,587.5C 671.5,589.833 671.5,592.167 671.5,594.5C 671.5,592.167 671.5,589.833 671.5,587.5C 669.167,587.5 666.833,587.5 664.5,587.5 Z"/></g>
<g><path style="opacity:1" fill="#2c548c" d="M 622.5,601.5 C 624.833,601.5 627.167,601.5 629.5,601.5C 629.5,603.833 629.5,606.167 629.5,608.5C 627.167,608.5 624.833,608.5 622.5,608.5C 622.5,606.167 622.5,603.833 622.5,601.5 Z"/></g>
<g><path style="opacity:1" fill="#031211" d="M 615.5,615.5 C 634.167,615.5 652.833,615.5 671.5,615.5C 671.5,634.167 671.5,652.833 671.5,671.5C 652.833,671.5 634.167,671.5 615.5,671.5C 615.5,652.833 615.5,634.167 615.5,615.5 Z"/></g>
<g><path style="opacity:1" fill="#d2d2d2" d="M 559.5,622.5 C 559.5,638.833 559.5,655.167 559.5,671.5C 547.833,671.5 536.167,671.5 524.5,671.5C 524.5,669.167 524.5,666.833 524.5,664.5C 529.167,664.5 533.833,664.5 538.5,664.5C 538.5,662.167 538.5,659.833 538.5,657.5C 540.833,657.5 543.167,657.5 545.5,657.5C 545.5,650.5 545.5,643.5 545.5,636.5C 547.833,636.5 550.167,636.5 552.5,636.5C 552.5,631.833 552.5,627.167 552.5,622.5C 554.833,622.5 557.167,622.5 559.5,622.5 Z"/></g>
<g><path style="opacity:1" fill="#000000" d="M 111.5,671.5 C 130.167,671.5 148.833,671.5 167.5,671.5C 167.5,690.167 167.5,708.833 167.5,727.5C 148.833,727.5 130.167,727.5 111.5,727.5C 111.5,708.833 111.5,690.167 111.5,671.5 Z"/></g>
<g><path style="opacity:1" fill="#edf0f0" d="M 447.5,671.5 C 447.5,678.5 447.5,685.5 447.5,692.5C 445.167,692.5 442.833,692.5 440.5,692.5C 440.5,697.167 440.5,701.833 440.5,706.5C 438.167,706.5 435.833,706.5 433.5,706.5C 433.5,711.167 433.5,715.833 433.5,720.5C 428.833,720.5 424.167,720.5 419.5,720.5C 419.5,722.833 419.5,725.167 419.5,727.5C 410.167,727.5 400.833,727.5 391.5,727.5C 391.5,708.833 391.5,690.167 391.5,671.5C 410.167,671.5 428.833,671.5 447.5,671.5 Z"/></g>
<g><path style="opacity:1" fill="#000000" d="M 447.5,671.5 C 473.167,671.5 498.833,671.5 524.5,671.5C 536.167,671.5 547.833,671.5 559.5,671.5C 559.5,690.167 559.5,708.833 559.5,727.5C 522.167,727.5 484.833,727.5 447.5,727.5C 447.5,715.833 447.5,704.167 447.5,692.5C 447.5,685.5 447.5,678.5 447.5,671.5 Z"/></g>
<g><path style="opacity:1" fill="#d2d2d2" d="M 447.5,692.5 C 447.5,704.167 447.5,715.833 447.5,727.5C 438.167,727.5 428.833,727.5 419.5,727.5C 419.5,725.167 419.5,722.833 419.5,720.5C 424.167,720.5 428.833,720.5 433.5,720.5C 433.5,715.833 433.5,711.167 433.5,706.5C 435.833,706.5 438.167,706.5 440.5,706.5C 440.5,701.833 440.5,697.167 440.5,692.5C 442.833,692.5 445.167,692.5 447.5,692.5 Z"/></g>
<g><path style="opacity:1" fill="#000000" d="M 167.5,727.5 C 186.167,727.5 204.833,727.5 223.5,727.5C 223.5,746.167 223.5,764.833 223.5,783.5C 242.167,783.5 260.833,783.5 279.5,783.5C 279.5,764.833 279.5,746.167 279.5,727.5C 298.167,727.5 316.833,727.5 335.5,727.5C 335.5,746.167 335.5,764.833 335.5,783.5C 344.833,783.5 354.167,783.5 363.5,783.5C 372.833,783.5 382.167,783.5 391.5,783.5C 391.5,774.167 391.5,764.833 391.5,755.5C 391.5,746.167 391.5,736.833 391.5,727.5C 400.833,727.5 410.167,727.5 419.5,727.5C 428.833,727.5 438.167,727.5 447.5,727.5C 447.5,746.167 447.5,764.833 447.5,783.5C 447.5,802.167 447.5,820.833 447.5,839.5C 354.167,839.5 260.833,839.5 167.5,839.5C 167.5,802.167 167.5,764.833 167.5,727.5 Z"/></g>
<g><path style="opacity:1" fill="#edf1f1" d="M 335.5,727.5 C 354.167,727.5 372.833,727.5 391.5,727.5C 391.5,736.833 391.5,746.167 391.5,755.5C 386.833,755.5 382.167,755.5 377.5,755.5C 377.5,760.167 377.5,764.833 377.5,769.5C 372.833,769.5 368.167,769.5 363.5,769.5C 363.5,774.167 363.5,778.833 363.5,783.5C 354.167,783.5 344.833,783.5 335.5,783.5C 335.5,764.833 335.5,746.167 335.5,727.5 Z"/></g>
<g><path style="opacity:1" fill="#031211" d="M 839.5,783.5 C 825.5,783.5 811.5,783.5 797.5,783.5C 795.167,783.5 792.833,783.5 790.5,783.5C 788.167,783.5 785.833,783.5 783.5,783.5C 783.5,764.833 783.5,746.167 783.5,727.5C 802.167,727.5 820.833,727.5 839.5,727.5C 839.5,746.167 839.5,764.833 839.5,783.5 Z"/></g>
<g><path style="opacity:1" fill="#dbdbdb" d="M 391.5,755.5 C 391.5,764.833 391.5,774.167 391.5,783.5C 382.167,783.5 372.833,783.5 363.5,783.5C 363.5,778.833 363.5,774.167 363.5,769.5C 368.167,769.5 372.833,769.5 377.5,769.5C 377.5,764.833 377.5,760.167 377.5,755.5C 382.167,755.5 386.833,755.5 391.5,755.5 Z"/></g>
<g><path style="opacity:1" fill="#031211" d="M 783.5,783.5 C 783.5,802.167 783.5,820.833 783.5,839.5C 764.833,839.5 746.167,839.5 727.5,839.5C 727.5,820.833 727.5,802.167 727.5,783.5C 746.167,783.5 764.833,783.5 783.5,783.5 Z"/></g>
<g><path style="opacity:1" fill="#04181f" d="M 783.5,783.5 C 785.833,783.5 788.167,783.5 790.5,783.5C 790.5,785.833 790.5,788.167 790.5,790.5C 792.833,790.5 795.167,790.5 797.5,790.5C 797.5,788.167 797.5,785.833 797.5,783.5C 811.5,783.5 825.5,783.5 839.5,783.5C 839.5,792.833 839.5,802.167 839.5,811.5C 837.167,811.5 834.833,811.5 832.5,811.5C 832.5,813.833 832.5,816.167 832.5,818.5C 830.167,818.5 827.833,818.5 825.5,818.5C 825.5,813.833 825.5,809.167 825.5,804.5C 823.167,804.5 820.833,804.5 818.5,804.5C 818.5,809.167 818.5,813.833 818.5,818.5C 816.167,818.5 813.833,818.5 811.5,818.5C 811.5,820.833 811.5,823.167 811.5,825.5C 806.833,825.5 802.167,825.5 797.5,825.5C 797.5,827.833 797.5,830.167 797.5,832.5C 802.167,832.5 806.833,832.5 811.5,832.5C 811.5,834.833 811.5,837.167 811.5,839.5C 802.167,839.5 792.833,839.5 783.5,839.5C 783.5,820.833 783.5,802.167 783.5,783.5 Z"/></g>
<g><path style="opacity:1" fill="#1c4b8c" d="M 790.5,783.5 C 792.833,783.5 795.167,783.5 797.5,783.5C 797.5,785.833 797.5,788.167 797.5,790.5C 795.167,790.5 792.833,790.5 790.5,790.5C 790.5,788.167 790.5,785.833 790.5,783.5 Z"/></g>
<g><path style="opacity:1" fill="#143058" d="M 811.5,790.5 C 813.833,790.5 816.167,790.5 818.5,790.5C 818.5,792.833 818.5,795.167 818.5,797.5C 816.167,797.5 813.833,797.5 811.5,797.5C 811.5,795.167 811.5,792.833 811.5,790.5 Z"/></g>
<g><path style="opacity:1" fill="#143058" d="M 825.5,818.5 C 823.167,818.5 820.833,818.5 818.5,818.5C 818.5,813.833 818.5,809.167 818.5,804.5C 820.833,804.5 823.167,804.5 825.5,804.5C 825.5,809.167 825.5,813.833 825.5,818.5 Z"/></g>
<g><path style="opacity:1" fill="#143058" d="M 839.5,811.5 C 839.5,813.833 839.5,816.167 839.5,818.5C 837.167,818.5 834.833,818.5 832.5,818.5C 832.5,816.167 832.5,813.833 832.5,811.5C 834.833,811.5 837.167,811.5 839.5,811.5 Z"/></g>
<g><path style="opacity:1" fill="#143058" d="M 818.5,818.5 C 818.5,820.833 818.5,823.167 818.5,825.5C 816.167,825.5 813.833,825.5 811.5,825.5C 811.5,823.167 811.5,820.833 811.5,818.5C 813.833,818.5 816.167,818.5 818.5,818.5 Z"/></g>
<g><path style="opacity:1" fill="#1c4b8c" d="M 818.5,818.5 C 820.833,818.5 823.167,818.5 825.5,818.5C 825.5,820.833 825.5,823.167 825.5,825.5C 827.833,825.5 830.167,825.5 832.5,825.5C 832.5,827.833 832.5,830.167 832.5,832.5C 830.167,832.5 827.833,832.5 825.5,832.5C 825.5,834.833 825.5,837.167 825.5,839.5C 823.167,839.5 820.833,839.5 818.5,839.5C 818.5,837.167 818.5,834.833 818.5,832.5C 816.167,832.5 813.833,832.5 811.5,832.5C 811.5,830.167 811.5,827.833 811.5,825.5C 813.833,825.5 816.167,825.5 818.5,825.5C 818.5,823.167 818.5,820.833 818.5,818.5 Z"/></g>
<g><path style="opacity:1" fill="#143058" d="M 825.5,818.5 C 827.833,818.5 830.167,818.5 832.5,818.5C 832.5,820.833 832.5,823.167 832.5,825.5C 830.167,825.5 827.833,825.5 825.5,825.5C 825.5,823.167 825.5,820.833 825.5,818.5 Z"/></g>
<g><path style="opacity:1" fill="#143058" d="M 811.5,825.5 C 811.5,827.833 811.5,830.167 811.5,832.5C 806.833,832.5 802.167,832.5 797.5,832.5C 797.5,830.167 797.5,827.833 797.5,825.5C 802.167,825.5 806.833,825.5 811.5,825.5 Z"/></g>
<g><path style="opacity:1" fill="#143058" d="M 832.5,825.5 C 834.833,825.5 837.167,825.5 839.5,825.5C 839.5,827.833 839.5,830.167 839.5,832.5C 837.167,832.5 834.833,832.5 832.5,832.5C 832.5,830.167 832.5,827.833 832.5,825.5 Z"/></g>
<g><path style="opacity:1" fill="#143058" d="M 811.5,832.5 C 813.833,832.5 816.167,832.5 818.5,832.5C 818.5,834.833 818.5,837.167 818.5,839.5C 816.167,839.5 813.833,839.5 811.5,839.5C 811.5,837.167 811.5,834.833 811.5,832.5 Z"/></g>
<g><path style="opacity:1" fill="#143058" d="M 832.5,832.5 C 832.5,834.833 832.5,837.167 832.5,839.5C 830.167,839.5 827.833,839.5 825.5,839.5C 825.5,837.167 825.5,834.833 825.5,832.5C 827.833,832.5 830.167,832.5 832.5,832.5 Z"/></g>
<g><path style="opacity:1" fill="#031212" d="M 839.5,783.5 C 858.167,783.5 876.833,783.5 895.5,783.5C 895.5,802.167 895.5,820.833 895.5,839.5C 876.833,839.5 858.167,839.5 839.5,839.5C 839.5,858.167 839.5,876.833 839.5,895.5C 820.833,895.5 802.167,895.5 783.5,895.5C 783.5,876.833 783.5,858.167 783.5,839.5C 792.833,839.5 802.167,839.5 811.5,839.5C 813.833,839.5 816.167,839.5 818.5,839.5C 820.833,839.5 823.167,839.5 825.5,839.5C 827.833,839.5 830.167,839.5 832.5,839.5C 832.5,837.167 832.5,834.833 832.5,832.5C 834.833,832.5 837.167,832.5 839.5,832.5C 839.5,830.167 839.5,827.833 839.5,825.5C 837.167,825.5 834.833,825.5 832.5,825.5C 832.5,823.167 832.5,820.833 832.5,818.5C 834.833,818.5 837.167,818.5 839.5,818.5C 839.5,816.167 839.5,813.833 839.5,811.5C 839.5,802.167 839.5,792.833 839.5,783.5 Z"/></g>
<!-- Code injected by live-server -->
<script>
	// <![CDATA[  <-- For SVG support
	if ('WebSocket' in window) {
		(function () {
			function refreshCSS() {
				var sheets = [].slice.call(document.getElementsByTagName("link"));
				var head = document.getElementsByTagName("head")[0];
				for (var i = 0; i < sheets.length; ++i) {
					var elem = sheets[i];
					var parent = elem.parentElement || head;
					parent.removeChild(elem);
					var rel = elem.rel;
					if (elem.href && typeof rel != "string" || rel.length == 0 || rel.toLowerCase() == "stylesheet") {
						var url = elem.href.replace(/(&|\?)_cacheOverride=\d+/, '');
						elem.href = url + (url.indexOf('?') >= 0 ? '&' : '?') + '_cacheOverride=' + (new Date().valueOf());
					}
					parent.appendChild(elem);
				}
			}
			var protocol = window.location.protocol === 'http:' ? 'ws://' : 'wss://';
			var address = protocol + window.location.host + window.location.pathname + '/ws';
			var socket = new WebSocket(address);
			socket.onmessage = function (msg) {
				if (msg.data == 'reload') window.location.reload();
				else if (msg.data == 'refreshcss') refreshCSS();
			};
			if (sessionStorage && !sessionStorage.getItem('IsThisFirstTime_Log_From_LiveServer')) {
				console.log('Live reload enabled.');
				sessionStorage.setItem('IsThisFirstTime_Log_From_LiveServer', true);
			}
		})();
	}
	else {
		console.error('Upgrade your browser. This Browser is NOT supported WebSocket for Live-Reloading.');
	}
	// ]]>
</script>
</svg>
